<?xml version="1.0" standalone="no"?>
<!DOCTYPE svg PUBLIC "-//W3C//DTD SVG 1.1//EN" "http://www.w3.org/Graphics/SVG/1.1/DTD/svg11.dtd" >
<svg xmlns="http://www.w3.org/2000/svg">
<metadata>Generated by IcoMoon</metadata>
<defs>
<font id="icon-font" horiz-adv-x="1024">
<font-face units-per-em="1024" ascent="960" descent="-64" />
<missing-glyph horiz-adv-x="1024" />
<glyph unicode="&#x20;" horiz-adv-x="512" d="" />
<glyph unicode="&#xe900;" d="M917.015 455.642c0-236.345-191.595-427.94-427.94-427.94s-427.94 191.595-427.94 427.94c0 236.345 191.595 427.94 427.94 427.94s427.94-191.595 427.94-427.94z" />
<glyph unicode="&#xe901;" d="M351.522 360.884c-1.528-1.528-3.057-3.057-4.585-4.585-7.642-10.699-15.284-22.925-24.454-32.096-1.528-1.528-3.057-3.057-6.113-4.585s-4.585-1.528-6.113 1.528c-1.528 3.057-1.528 7.642-1.528 10.699 0 21.397 4.585 41.266 10.699 61.134 9.17 30.567 21.397 61.134 33.624 90.173 1.528 3.057 1.528 6.113 1.528 10.699 0 24.454 1.528 48.907 7.642 73.361 7.642 24.454 18.34 47.379 36.681 65.719 18.34 19.869 42.794 30.567 68.776 33.624 21.397 3.057 41.266 1.528 62.663-4.585 30.567-9.17 51.964-29.039 67.248-56.549 13.755-22.925 19.869-48.907 22.925-74.89 1.528-12.227 1.528-24.454 1.528-36.681 0-4.585 0-7.642 1.528-10.699 10.699-25.982 21.397-51.964 30.567-79.475 6.113-19.869 10.699-38.209 13.755-58.078 0-7.642 1.528-13.755 0-21.397s-4.585-9.17-10.699-3.057c-4.585 3.057-7.642 7.642-10.699 12.227-6.113 7.642-10.699 15.284-16.812 22.925-1.528 1.528-1.528 3.057-3.057 3.057 0-3.057 0-4.585-1.528-7.642-3.057-27.51-16.812-50.436-35.152-70.304-6.113-6.113-6.113-6.113 1.528-7.642 7.642-3.057 24.454-12.227 25.982-12.227 3.057-3.057 6.113-6.113 4.585-10.699s-6.113-6.113-9.17-6.113c-9.17-1.528-19.869-3.057-29.039-3.057-21.397 0-42.794 0-64.191 0-9.17 0-19.869 1.528-29.039 3.057-10.699 0-19.869-1.528-30.567-1.528-7.642 0-16.812-1.528-24.454-1.528-18.34 0-38.209 0-56.549 0-6.113 0-12.227 1.528-18.34 3.057s-7.642 6.113-4.585 12.227c3.057 4.585 25.982 16.812 33.624 18.34 4.585 1.528 3.057 1.528 1.528 4.585-10.699 9.17-19.869 19.869-25.982 33.624-7.642 13.755-12.227 29.039-13.755 44.322 0 1.528 0 1.528 0 3.057z" />
<glyph unicode="&#xe902;" horiz-adv-x="1039" d="M932.299 455.642c0-236.345-191.595-427.94-427.94-427.94s-427.94 191.595-427.94 427.94c0 236.345 191.595 427.94 427.94 427.94s427.94-191.595 427.94-427.94z" />
<glyph unicode="&#xe903;" horiz-adv-x="1039" d="M721.385 516.776c-35.152 4.585-142.137 19.869-142.137 19.869s-47.379 96.287-64.191 128.382c-4.585 10.699-18.34 10.699-24.454 0-15.284-32.096-64.191-128.382-64.191-128.382s-106.985-15.284-142.137-19.869c-12.227-1.528-15.284-13.755-7.642-22.925 29.039-24.454 105.457-99.343 105.457-99.343s-18.34-105.457-24.454-140.609c-1.528-12.227 9.17-19.869 19.869-13.755 32.096 16.812 126.854 67.248 126.854 67.248s94.758-50.436 126.854-67.248c10.699-6.113 21.397 3.057 19.869 13.755-3.057 13.755-9.17 50.436-13.755 79.475l21.397 10.699-25.982-6.113c-79.475-15.284-166.591-16.812-232.31-1.528 59.606 51.964 131.439 108.513 157.421 140.609-55.021 9.17-113.099 12.227-184.931 16.812 45.851 25.982 203.272 22.925 272.048 4.585-65.719-61.134-100.872-88.645-157.421-132.967 42.794-10.699 91.701-10.699 143.666-13.755 0 4.585-1.528 7.642-1.528 10.699-1.528 6.113-4.585 24.454-4.585 24.454 1.528 4.585 1.528 7.642 1.528 7.642s76.418 74.89 102.4 99.343c9.17 9.17 4.585 21.397-7.642 22.925z" />
<glyph unicode="&#xe904;" horiz-adv-x="1085" d="M978.149 455.642c0-236.345-191.595-427.94-427.94-427.94s-427.94 191.595-427.94 427.94c0 236.345 191.595 427.94 427.94 427.94s427.94-191.595 427.94-427.94z" />
<glyph unicode="&#xe905;" horiz-adv-x="1085" d="M693.875 484.681c0 0 0 0 0 0-6.113 0-9.17 4.585-9.17 9.17 3.057 24.454-1.528 41.266-10.699 48.907-15.284 12.227-41.266 4.585-41.266 4.585-4.585-1.528-9.17 1.528-10.699 6.113s1.528 9.17 6.113 10.699c1.528 0 35.152 10.699 58.078-7.642 15.284-12.227 21.397-33.624 18.34-64.191-3.057-4.585-6.113-7.642-10.699-7.642z" />
<glyph unicode="&#xe906;" horiz-adv-x="1085" d="M751.952 469.397c0 0-1.528 0 0 0-6.113 1.528-9.17 4.585-9.17 10.699 9.17 55.021 1.528 93.23-21.397 114.627-35.152 30.567-96.287 13.755-97.815 13.755-4.585-1.528-9.17 1.528-10.699 6.113s1.528 9.17 6.113 10.699c3.057 1.528 71.833 19.869 113.099-16.812 29.039-24.454 36.681-68.776 27.51-129.91 0-6.113-3.057-9.17-7.642-9.17z" />
<glyph unicode="&#xe907;" horiz-adv-x="1085" d="M649.552 455.642c-16.812 3.057-9.17 12.227-9.17 12.227s16.812 25.982-3.057 45.851c-24.454 24.454-82.531-3.057-82.531-3.057-22.925-7.642-16.812 3.057-13.755 19.869 0 19.869-7.642 53.493-65.719 33.624-59.606-19.869-110.042-91.701-110.042-91.701-35.152-47.379-30.567-84.060-30.567-84.060 9.17-81.003 94.758-102.4 160.478-106.985 70.304-6.113 165.063 24.454 192.573 85.588 30.567 61.134-21.397 85.588-38.209 88.645zM510.472 298.221c-76.418 0-137.552 35.152-137.552 79.475s61.134 79.475 137.552 79.475c76.418 0 137.552-35.152 137.552-79.475s-61.134-79.475-137.552-79.475z" />
<glyph unicode="&#xe908;" horiz-adv-x="1085" d="M510.472 418.961c-27.51 0-50.436-22.925-50.436-50.436s22.925-50.436 50.436-50.436c27.51 0 50.436 22.925 50.436 50.436s-22.925 50.436-50.436 50.436zM493.66 334.901c-10.699 0-19.869 9.17-19.869 19.869s9.17 19.869 19.869 19.869c10.699 0 19.869-9.17 19.869-19.869-1.528-10.699-9.17-19.869-19.869-19.869zM518.113 368.525c-3.057 0-4.585 1.528-4.585 4.585s1.528 4.585 4.585 4.585 4.585-1.528 4.585-4.585c0-1.528-3.057-4.585-4.585-4.585z" />
<glyph unicode="&#xe909;" horiz-adv-x="1009" d="M917.015 455.642c0-236.345-191.595-427.94-427.94-427.94s-427.94 191.595-427.94 427.94c0 236.345 191.595 427.94 427.94 427.94s427.94-191.595 427.94-427.94z" />
<glyph unicode="&#xe90a;" horiz-adv-x="1009" d="M417.242 654.328c-94.758 0-172.704-64.191-172.704-146.722 0-47.379 25.982-87.116 68.776-116.155l-16.812-51.964 61.134 30.567c21.397-4.585 39.737-9.17 61.134-9.17 6.113 0 10.699 0 16.812 0l1.528 1.528c-4.585 12.227-6.113 24.454-6.113 38.209 0 74.89 70.304 134.496 157.421 134.496 1.528 0 3.057 0 4.585 0-16.812 68.776-90.173 119.212-175.761 119.212zM360.693 538.173c-12.227 0-25.982 9.17-25.982 21.397 0 13.755 13.755 21.397 25.982 21.397s21.397-9.17 21.397-21.397c1.528-12.227-7.642-21.397-21.397-21.397zM482.961 538.173c-12.227 0-25.982 9.17-25.982 21.397 0 13.755 13.755 21.397 25.982 21.397 13.755 0 21.397-9.17 21.397-21.397s-9.17-21.397-21.397-21.397z" />
<glyph unicode="&#xe90b;" horiz-adv-x="1009" d="M733.612 399.093c0 68.776-68.776 125.325-146.722 125.325-82.531 0-146.722-56.549-146.722-125.325s64.191-125.325 146.722-125.325c16.812 0 35.152 4.585 51.964 9.17l47.379-25.982-13.755 42.794c35.152 25.982 61.134 61.134 61.134 99.343zM539.51 420.49c-9.17 0-16.812 9.17-16.812 16.812 0 9.17 9.17 16.812 16.812 16.812 13.755 0 21.397-9.17 21.397-16.812s-9.17-16.812-21.397-16.812zM634.269 420.49c-9.17 0-16.812 9.17-16.812 16.812 0 9.17 9.17 16.812 16.812 16.812 12.227 0 21.397-9.17 21.397-16.812s-9.17-16.812-21.397-16.812z" />
<glyph unicode="&#xe90c;" glyph-name="logo" horiz-adv-x="2078" d="M1677.746 625.056l-114.506-133.675c-38.337 114.506-287.023 458.53-287.023 458.53-38.337-133.675-324.855-573.541-324.855-573.541l-191.18 172.012-305.687-344.024-95.338 191.18-344.024-381.856 279.456 156.879c16.142 9.080 36.319 8.071 51.452-2.522l108.958-77.683 177.056 108.453c9.080 4.035 19.168 5.044 28.753 2.522l195.216-34.301-76.674 229.517 611.878-440.37-229.517 439.362 114.506 324.855c114.506-324.855 401.529-592.205 401.529-592.205l19.168 324.855 363.192-344.024-382.361 516.035zM522.089 572.595l-81.214 40.859 40.355 101.896 122.577 20.682-142.755 61.036-101.896-169.994 152.843-135.693 132.666 122.073z" />
<glyph unicode="&#xe90d;" glyph-name="index-a" horiz-adv-x="1003" d="M558.933 853.333c-102.4-25.6-417.067 20.267-450.133-122.667-10.667-48 8.533-99.2 18.133-144 13.867-67.2 22.4-131.2 27.733-200.533 7.467-92.8-1.067-252.8 42.667-338.133 28.8-57.6 71.467-48 134.4-43.733 125.867 8.533 251.733 24.533 375.467 49.067 65.067 12.8 150.4 19.2 182.4 87.467 39.467 84.267-7.467 234.667-14.933 323.2-5.333 55.467-91.733 55.467-87.467 0 6.4-65.067 21.333-137.6 18.133-203.733-6.4-115.2-77.867-117.333-177.067-133.333-89.6-14.933-179.2-22.4-268.8-33.067-18.133-1.067-68.267-18.133-86.4 14.933-22.4 35.2-17.067 131.2-21.333 171.733-11.733 108.8-30.933 220.8-40.533 328.533-3.2 32-11.733 90.667 19.2 116.267 23.467 20.267 124.8 13.867 164.267 17.067 64 4.267 123.733 10.667 186.667 25.6 55.467 14.933 32 99.2-22.4 85.333v0zM795.733 820.267c-99.2-130.133-221.867-245.333-333.867-364.8-38.4-40.533 23.467-102.4 61.867-61.867 117.333 124.8 243.2 245.333 347.733 382.933 34.133 44.8-41.6 88.533-75.733 43.733v0z" />
<glyph unicode="&#xe90e;" glyph-name="index-b" horiz-adv-x="971" d="M546.133 853.333c-102.4-25.6-417.067 20.267-450.133-122.667-10.667-48 8.533-99.2 18.133-144 13.867-67.2 22.4-131.2 27.733-200.533 7.467-92.8-1.067-252.8 42.667-338.133 28.8-57.6 71.467-48 134.4-43.733 125.867 8.533 251.733 24.533 375.467 49.067 65.067 12.8 150.4 19.2 182.4 87.467 39.467 84.267-7.467 234.667-14.933 323.2-5.333 55.467-91.733 55.467-87.467 0 6.4-65.067 21.333-137.6 18.133-203.733-6.4-115.2-77.867-117.333-177.067-133.333-89.6-14.933-179.2-22.4-268.8-33.067-18.133-1.067-68.267-18.133-86.4 14.933-22.4 35.2-17.067 131.2-21.333 171.733-11.733 108.8-30.933 220.8-40.533 328.533-3.2 32-11.733 90.667 19.2 116.267 23.467 20.267 124.8 13.867 164.267 17.067 64 4.267 123.733 10.667 186.667 25.6 55.467 14.933 32 99.2-22.4 85.333v0zM325.333 510.933c80 9.6 160 20.267 240 29.867 54.4 6.4 55.467 93.867 0 87.467-80-9.6-160-20.267-240-29.867-54.4-7.467-55.467-94.933 0-87.467v0zM354.133 365.867c80 9.6 160 20.267 240 29.867 54.4 6.4 55.467 93.867 0 87.467-80-9.6-160-20.267-240-29.867-54.4-7.467-55.467-94.933 0-87.467v0zM382.933 220.8c80 9.6 160 20.267 240 29.867 54.4 6.4 55.467 93.867 0 87.467-80-9.6-160-20.267-240-29.867-54.4-7.467-55.467-94.933 0-87.467v0z" />
<glyph unicode="&#xe90f;" glyph-name="index-c" horiz-adv-x="937" d="M529.43 851.064c-104.579-26.145-425.94 20.698-459.711-125.277-10.894-49.021 8.715-101.311 18.519-147.064 14.162-68.63 22.877-133.991 28.323-204.8 7.626-94.774-1.089-258.179 43.574-345.328 29.413-58.826 72.987-49.021 137.26-44.664 127.455 8.715 257.089 25.055 383.455 50.111 66.451 13.072 153.6 19.609 186.281 89.328 40.306 86.060-7.626 239.66-15.251 330.077-5.447 56.647-93.685 56.647-89.328 0 6.536-66.451 21.787-140.528 18.519-208.068-6.536-117.651-79.523-119.83-180.834-136.17-91.506-15.251-183.013-22.877-274.519-33.77-18.519-1.089-69.719-18.519-88.238 15.251-22.877 35.949-17.43 133.991-21.787 175.387-11.983 111.115-31.591 225.498-41.396 335.523-3.268 32.681-11.983 92.596 19.609 118.74 23.966 20.698 127.455 14.162 167.762 17.43 65.362 4.357 126.366 10.894 190.638 26.145 55.557 15.251 32.681 101.311-22.877 87.149v0zM455.353 650.621c0 0 41.396-14.162 54.468-62.094 0 0 14.162-33.77 0-81.702 0 0-6.536-47.932 33.77-68.63 0 0 20.698-41.396 6.536-75.166 0 0-14.162-62.094-81.702-68.63 0 0-95.864 27.234-95.864 123.098 0 0-6.536 47.932 68.63 129.634 1.089 1.089 42.485 41.396 14.162 103.489z" />
<glyph unicode="&#xe910;" glyph-name="i-pen" d="M478.871 318.494l-93.365-93.365c-6.024-6.024-9.035-6.024-9.035-6.024-6.024 0-9.035 0-18.071-6.024l-96.376-6.024c-27.106-6.024-45.176 18.071-51.2 42.165v9.035l9.035 96.376c0 9.035 0 15.059 6.024 18.071 0 6.024 6.024 9.035 6.024 9.035l280.094 286.118c15.059 15.059 24.094 18.071 27.106 24.094 9.035 6.024 18.071 6.024 24.094 0 9.035-6.024 15.059-6.024 27.106-24.094l78.306-78.306c15.059-15.059 18.071-24.094 24.094-27.106 6.024-9.035 6.024-18.071 0-24.094-6.024-9.035-6.024-15.059-24.094-27.106l-93.365-93.365c-9.035-9.035-24.094-9.035-33.129 0s-9.035 24.094 0 33.129l90.353 87.341 9.035 9.035-96.376 96.376-283.106-283.106v-9.035l-9.035-96.376 96.376 9.035h9.035c0 0 6.024 0 6.024 6.024l78.306 78.306c9.035 9.035 24.094 9.035 33.129 0 15.059-6.024 15.059-21.082 3.012-30.118v0zM777.035 809.412l33.129-30.118c36.141-36.141 36.141-93.365 0-129.506l-33.129-33.129c-18.071-18.071-45.176-18.071-66.259 0l-96.376 96.376c-18.071 18.071-18.071 45.176 0 66.259l33.129 30.118c33.129 39.153 93.365 39.153 129.506 0v0zM743.906 779.294c-18.071 18.071-45.176 18.071-66.259 0l-36.141-33.129 96.376-96.376 33.129 33.129c18.071 18.071 18.071 45.176 0 66.259l-27.106 30.118zM834.259 95.624h-602.353c-15.059 0-24.094 9.035-24.094 24.094s9.035 24.094 24.094 24.094h602.353c15.059 0 24.094-9.035 24.094-24.094-3.012-15.059-12.047-24.094-24.094-24.094v0z" />
<glyph unicode="&#xe911;" glyph-name="i-lock" horiz-adv-x="949" d="M452.059 275.668c-22.478 0-39.961 14.985-39.961 39.961v77.424c0 19.98 14.985 39.961 39.961 39.961 19.98 0 39.961-14.985 39.961-39.961v-77.424c-2.498-24.976-17.483-39.961-39.961-39.961v0zM744.273 353.093c12.488 0 19.98 7.493 19.98 19.98v97.405c0 42.459-34.966 77.424-77.424 77.424h-39.961v39.961c0 109.893-84.917 194.81-194.81 194.81s-194.81-84.917-194.81-194.81v-39.961h-39.961c-42.459 0-77.424-34.966-77.424-77.424v-234.771c0-42.459 34.966-77.424 77.424-77.424h469.541c42.459 0 77.424 34.966 77.424 77.424v19.98c0 12.488-7.493 19.98-19.98 19.98s-19.98-7.493-19.98-19.98v-19.98c0-22.478-14.985-39.961-39.961-39.961h-467.044c-22.478 0-39.961 14.985-39.961 39.961v234.771c0 22.478 14.985 39.961 39.961 39.961h469.541c22.478 0 39.961-14.985 39.961-39.961v-97.405c-2.498-12.488 4.995-19.98 17.483-19.98v0zM294.712 547.902v39.961c0 84.917 69.932 157.346 154.849 157.346s157.346-69.932 157.346-157.346v-39.961h-312.195z" />
<glyph unicode="&#xe912;" glyph-name="i-setting" horiz-adv-x="849" d="M439.571 148.293h-52.449c-39.961 0-72.429 32.468-72.429 72.429v7.493c0 14.985-7.493 27.473-19.98 34.966s-27.473 7.493-39.961 0l-4.995-2.498c-17.483-9.99-34.966-12.488-54.946-7.493s-34.966 17.483-44.956 32.468l-24.976 44.956c-9.99 17.483-12.488 34.966-7.493 54.946 4.995 17.483 17.483 34.966 32.468 44.956l4.995 2.498c12.488 7.493 19.98 19.98 19.98 34.966s-7.493 27.473-19.98 34.966l-4.995 4.995c-17.483 9.99-27.473 24.976-32.468 44.956-4.995 17.483-2.498 37.463 7.493 54.946l24.976 44.956c9.99 14.985 24.976 27.473 42.459 32.468s34.966 4.995 52.449-2.498c9.99-4.995 12.488-14.985 7.493-24.976s-14.985-12.488-24.976-7.493c-17.483 7.493-37.463 2.498-47.454-14.985l-24.976-44.956c-4.995-9.99-4.995-19.98-2.498-29.971s7.493-17.483 17.483-22.478l4.995-2.498c24.976-14.985 37.463-39.961 37.463-67.434s-12.488-52.449-37.463-64.937l-4.995-2.498c-7.493-4.995-14.985-12.488-17.483-22.478s0-19.98 2.498-27.473l24.976-44.956c4.995-7.493 12.488-14.985 22.478-17.483s19.98 0 27.473 2.498l4.995 2.498c24.976 14.985 52.449 14.985 77.424 0s37.463-39.961 37.463-67.434v-7.493c0-19.98 14.985-34.966 34.966-34.966h52.449c19.98 0 34.966 14.985 34.966 34.966v7.493c0 27.473 14.985 52.449 37.463 67.434 24.976 14.985 52.449 14.985 77.424 0l4.995-2.498c7.493-4.995 17.483-4.995 27.473-2.498s17.483 7.493 22.478 17.483l24.976 44.956c9.99 17.483 4.995 39.961-12.488 49.951l-4.995 2.498c-24.976 14.985-37.463 39.961-37.463 67.434s14.985 52.449 37.463 67.434l4.995 2.498c7.493 4.995 14.985 12.488 17.483 22.478s0 19.98-2.498 27.473l-24.976 44.956c-9.99 17.483-32.468 22.478-49.951 12.488l-4.995-2.498c-24.976-14.985-52.449-14.985-77.424 0s-37.463 39.961-37.463 67.434v4.995c0 19.98-14.985 34.966-34.966 34.966h-52.449c-19.98 0-34.966-14.985-34.966-34.966v-7.493c0-14.985-4.995-29.971-12.488-42.459-4.995-7.493-17.483-9.99-24.976-4.995s-9.99 17.483-4.995 24.976c4.995 7.493 7.493 14.985 7.493 22.478v7.493c0 39.961 32.468 72.429 72.429 72.429h52.449c39.961 0 72.429-32.468 72.429-72.429v-7.493c0-14.985 7.493-27.473 19.98-34.966s27.473-7.493 39.961 0l4.995 2.498c34.966 19.98 77.424 7.493 97.405-27.473l24.976-44.956c9.99-17.483 12.488-34.966 7.493-54.946-4.995-17.483-17.483-34.966-32.468-44.956l-4.995-2.498c-12.488-7.493-19.98-19.98-19.98-34.966s7.493-27.473 19.98-34.966l4.995-2.498c17.483-9.99 27.473-24.976 32.468-44.956 4.995-17.483 2.498-37.463-7.493-54.946l-24.976-44.956c-9.99-17.483-24.976-27.473-44.956-32.468-17.483-4.995-37.463-2.498-54.946 7.493l-2.498 2.498c-12.488 7.493-27.473 7.493-39.961 0s-19.98-19.98-19.98-34.966v-7.493c-2.498-39.961-34.966-72.429-74.927-72.429v0zM414.595 348.098c-67.434 0-122.38 54.946-122.38 122.38s54.946 122.38 122.38 122.38c67.434 0 122.38-54.946 122.38-122.38s-54.946-122.38-122.38-122.38v0zM414.595 555.395c-47.454 0-87.415-39.961-87.415-87.415s39.961-87.415 87.415-87.415c47.454 0 87.415 39.961 87.415 87.415-2.498 49.951-39.961 87.415-87.415 87.415v0z" />
<glyph unicode="&#xe913;" glyph-name="i-top" horiz-adv-x="874" d="M716.8 665.288h-584.429c-9.99 0-19.98 7.493-19.98 19.98s7.493 19.98 19.98 19.98h586.927c9.99 0 19.98-7.493 19.98-19.98s-9.99-19.98-22.478-19.98zM724.293 235.707c-4.995 0-9.99 2.498-12.488 4.995l-217.288 217.288c-19.98 19.98-44.956 29.971-69.932 29.971s-49.951-9.99-69.932-27.473l-214.79-214.79c-7.493-7.493-19.98-7.493-27.473 0s-7.493 19.98 0 27.473l214.79 214.79c24.976 24.976 59.941 39.961 97.405 39.961s69.932-14.985 97.405-39.961l217.288-217.288c7.493-7.493 7.493-19.98 0-27.473-4.995-4.995-9.99-7.493-14.985-7.493z" />
<glyph unicode="&#xe914;" glyph-name="i-usr" horiz-adv-x="924" d="M447.063 455.493c-44.956 0-87.415 17.483-117.385 49.951-32.468 32.468-49.951 74.927-49.951 117.385 0 44.956 17.483 87.415 49.951 117.385 32.468 32.468 74.927 49.951 117.385 49.951 44.956 0 87.415-17.483 117.385-49.951 32.468-32.468 49.951-74.927 49.951-117.385 0-44.956-17.483-87.415-49.951-117.385-29.971-32.468-72.429-49.951-117.385-49.951v0zM447.063 752.702c-72.429 0-129.873-57.444-129.873-129.873s57.444-129.873 129.873-129.873c72.429 0 129.873 57.444 129.873 129.873s-57.444 129.873-129.873 129.873v0zM741.776 163.278c-9.99 0-19.98 7.493-19.98 19.98 0 87.415-39.961 167.337-109.893 219.785-7.493 4.995-9.99 17.483-4.995 27.473 4.995 7.493 17.483 9.99 27.473 4.995 37.463-27.473 69.932-64.937 92.41-107.395 22.478-44.956 34.966-92.41 34.966-142.361-2.498-12.488-9.99-22.478-19.98-22.478v0zM154.849 163.278c-9.99 0-19.98 7.493-19.98 19.98 0 42.459 7.493 82.42 24.976 122.38 14.985 37.463 37.463 69.932 67.434 99.902 27.473 27.473 62.439 49.951 99.902 67.434s79.922 24.976 122.38 24.976c9.99 0 19.98-7.493 19.98-19.98 0-9.99-7.493-19.98-19.98-19.98-152.351 0-274.732-122.38-274.732-274.732-2.498-12.488-9.99-19.98-19.98-19.98v0z" />
<glyph unicode="&#xe915;" glyph-name="logo-t-f" horiz-adv-x="3571" d="M350.316 527.495c-16.168-8.084-30.989-13.474-44.463-17.516s-29.642-6.737-45.811-6.737c-20.211 0-39.074 2.695-56.589 9.432-17.516 5.389-30.989 14.821-43.116 26.947s-21.558 26.947-28.295 45.811c-8.084 18.863-10.779 40.421-10.779 64.674 0 45.811 12.126 82.189 37.726 109.137 25.6 25.6 59.284 39.074 99.705 39.074 16.168 0 32.337-2.695 47.158-6.737 16.168-4.042 29.642-10.779 43.116-16.168v-52.547h-2.695c-14.821 10.779-29.642 20.211-44.463 25.6-14.821 6.737-30.989 9.432-44.463 9.432-26.947 0-48.505-9.432-63.326-26.947-16.168-17.516-22.905-44.463-22.905-79.495 0-33.684 8.084-60.632 22.905-78.147 14.821-18.863 36.379-26.947 64.674-26.947 9.432 0 18.863 1.347 29.642 4.042 9.432 2.695 18.863 5.389 26.947 9.432 6.737 4.042 13.474 6.737 18.863 10.779s10.779 6.737 14.821 10.779h1.347v-53.895zM654.821 791.579l-164.379-385.347h-51.2l52.547 117.221-111.832 268.126h51.2l86.232-208.842 87.579 208.842h49.853zM925.642 509.979h-47.158v29.642c-4.042-2.695-9.432-6.737-17.516-12.126-6.737-5.389-13.474-9.432-20.211-12.126-8.084-4.042-17.516-6.737-26.947-9.432-10.779-2.695-22.905-4.042-36.379-4.042-25.6 0-47.158 8.084-64.674 25.6-17.516 16.168-26.947 37.726-26.947 64.674 0 21.558 4.042 39.074 13.474 51.2 9.432 13.474 22.905 24.253 39.074 30.989 17.516 8.084 37.726 12.126 61.979 14.821s49.853 4.042 76.8 6.737v6.737c0 10.779-1.347 20.211-5.389 26.947s-9.432 12.126-16.168 16.168c-6.737 4.042-14.821 6.737-24.253 8.084s-18.863 2.695-29.642 2.695c-12.126 0-26.947-1.347-41.768-5.389-14.821-2.695-30.989-8.084-47.158-14.821h-2.695v48.505c9.432 2.695 22.905 5.389 40.421 8.084s35.032 4.042 51.2 4.042c20.211 0 37.726-1.347 51.2-5.389 14.821-2.695 26.947-9.432 37.726-16.168 10.779-8.084 18.863-17.516 24.253-29.642s8.084-26.947 8.084-45.811v-189.979zM878.484 578.695v78.147c-14.821-1.347-30.989-2.695-51.2-4.042s-35.032-4.042-47.158-6.737c-13.474-4.042-24.253-9.432-33.684-17.516-8.084-8.084-12.126-18.863-12.126-33.684 0-16.168 5.389-28.295 14.821-36.379s24.253-12.126 44.463-12.126c16.168 0 32.337 2.695 45.811 9.432s26.947 14.821 39.074 22.905zM1251.705 509.979h-47.158v160.337c0 13.474-1.347 25.6-2.695 36.379s-4.042 20.211-8.084 26.947c-4.042 6.737-10.779 12.126-17.516 16.168-8.084 4.042-17.516 5.389-30.989 5.389s-26.947-2.695-40.421-9.432c-13.474-6.737-28.295-14.821-40.421-24.253v-210.189h-47.158v280.253h47.158v-30.989c14.821 12.126 29.642 21.558 45.811 28.295s32.337 10.779 48.505 10.779c30.989 0 53.895-9.432 70.063-26.947 16.168-18.863 24.253-44.463 24.253-79.495v-183.242zM1720.589 509.979h-47.158v160.337c0 13.474-1.347 25.6-2.695 36.379s-4.042 20.211-8.084 26.947c-4.042 6.737-10.779 12.126-17.516 16.168-8.084 4.042-17.516 5.389-30.989 5.389s-26.947-2.695-40.421-9.432c-13.474-6.737-28.295-14.821-40.421-24.253v-210.189h-47.158v280.253h47.158v-30.989c14.821 12.126 29.642 21.558 45.811 28.295s32.337 10.779 48.505 10.779c30.989 0 53.895-9.432 70.063-26.947 16.168-18.863 24.253-44.463 24.253-79.495v-183.242zM2237.979 791.579l-114.526-281.6h-47.158l-113.179 281.6h51.2l87.579-223.663 86.232 223.663h49.853zM2508.8 509.979h-47.158v29.642c-4.042-2.695-9.432-6.737-17.516-12.126s-13.474-9.432-20.211-12.126c-8.084-4.042-17.516-6.737-26.947-9.432-10.779-2.695-22.905-4.042-36.379-4.042-25.6 0-47.158 8.084-64.674 25.6s-26.947 37.726-26.947 64.674c0 21.558 4.042 39.074 13.474 51.2 9.432 13.474 22.905 24.253 39.074 30.989 17.516 8.084 37.726 12.126 61.979 14.821s49.853 4.042 76.8 6.737v6.737c0 10.779-1.347 20.211-5.389 26.947s-9.432 12.126-16.168 16.168c-6.737 4.042-14.821 6.737-24.253 8.084s-18.863 2.695-29.642 2.695c-12.126 0-26.947-1.347-41.768-5.389-14.821-2.695-30.989-8.084-47.158-14.821h-2.695v48.505c9.432 2.695 22.905 5.389 40.421 8.084s35.032 4.042 51.2 4.042c20.211 0 37.726-1.347 51.2-5.389 14.821-2.695 26.947-9.432 37.726-16.168 10.779-8.084 18.863-17.516 24.253-29.642s8.084-26.947 8.084-45.811v-189.979zM2461.642 578.695v78.147c-14.821-1.347-30.989-2.695-51.2-4.042s-35.032-4.042-47.158-6.737c-13.474-4.042-24.253-9.432-33.684-17.516-8.084-8.084-12.126-18.863-12.126-33.684 0-16.168 5.389-28.295 14.821-36.379s24.253-12.126 44.463-12.126c16.168 0 32.337 2.695 45.811 9.432 14.821 6.737 26.947 14.821 39.074 22.905zM2647.579 509.979h-47.158v392.084h47.158v-392.084zM2789.053 509.979h-47.158v392.084h47.158v-392.084zM3119.158 646.063h-207.495c0-17.516 2.695-32.337 8.084-45.811s12.126-22.905 21.558-32.337c8.084-8.084 18.863-13.474 30.989-17.516s25.6-5.389 39.074-5.389c18.863 0 39.074 4.042 57.937 12.126s33.684 14.821 41.768 22.905h2.695v-51.2c-16.168-6.737-32.337-12.126-48.505-17.516-16.168-4.042-33.684-6.737-52.547-6.737-47.158 0-83.537 12.126-109.137 37.726s-39.074 60.632-39.074 107.789c0 45.811 12.126 82.189 37.726 109.137s57.937 40.421 99.705 40.421c37.726 0 67.368-10.779 87.579-33.684 20.211-21.558 30.989-53.895 30.989-94.316v-25.6zM3073.347 682.442c0 24.253-6.737 44.463-18.863 57.937s-30.989 20.211-56.589 20.211c-25.6 0-45.811-8.084-60.632-22.905s-24.253-33.684-25.6-55.242h161.684zM3434.442 791.579l-164.379-385.347h-49.853l52.547 117.221-111.832 268.126h51.2l86.232-208.842 87.579 208.842h48.505zM1381.053 914.189l-51.2-83.537 33.684 21.558c4.042 2.695 9.432 2.695 13.474-1.347l29.642-21.558-25.6 84.884zM1354.105 791.579h47.158v-281.6h-47.158v281.6zM2535.747 206.821h114.526v28.295h-71.411c-5.389 0-12.126 0-20.211-1.347v14.821c8.084-1.347 14.821-1.347 20.211-1.347h71.411v26.947h-88.926c-5.389 0-12.126 0-20.211-1.347v13.474c8.084-1.347 14.821-1.347 20.211-1.347h88.926v13.474c0 6.737 0 14.821-1.347 22.905h14.821c-1.347-8.084-1.347-16.168-1.347-22.905v-13.474h91.621c5.389 0 12.126 0 18.863 1.347v-13.474c-6.737 1.347-13.474 1.347-18.863 1.347h-91.621v-26.947h74.105c6.737 0 13.474 0 20.211 1.347v-14.821c-6.737 1.347-13.474 1.347-20.211 1.347h-74.105v-28.295h111.832c6.737 0 13.474 0 20.211 1.347v-14.821c-6.737 1.347-13.474 1.347-20.211 1.347h-237.137c-5.389 0-12.126 0-18.863-1.347v14.821c5.389-1.347 10.779-1.347 17.516-1.347zM2566.737 171.789c8.084-1.347 13.474-1.347 18.863-1.347h145.516c6.737 0 13.474 0 20.211 1.347-1.347-6.737-1.347-13.474-1.347-18.863v-101.053c0-12.126-2.695-20.211-8.084-22.905s-18.863-5.389-43.116-6.737c0 5.389-1.347 10.779-4.042 17.516 5.389-1.347 10.779-1.347 17.516-1.347s12.126 0 17.516 1.347c6.737 0 9.432 5.389 9.432 16.168v24.253h-157.642v-39.074c0-5.389 0-12.126 1.347-18.863h-14.821c1.347 6.737 1.347 13.474 1.347 18.863v110.484c0 5.389-1.347 12.126-2.695 20.211zM2580.211 159.663v-29.642h157.642v29.642h-157.642zM2580.211 117.895v-28.295h157.642v28.295h-157.642zM2826.779 105.768c12.126 13.474 22.905 48.505 30.989 103.747l18.863-5.389c-4.042-4.042-8.084-9.432-8.084-14.821-5.389-28.295-13.474-57.937-24.253-88.926-6.737 2.695-12.126 4.042-17.516 5.389zM3038.316 111.158c5.389-4.042 10.779-8.084 16.168-9.432-5.389-16.168-10.779-28.295-17.516-39.074-5.389-8.084-13.474-12.126-25.6-13.474-8.084-1.347-16.168-1.347-26.947-1.347-9.432 0-20.211 0-35.032 1.347-20.211 0-30.989 10.779-29.642 29.642v121.263c0 9.432 0 16.168-1.347 20.211h14.821c-1.347-8.084-1.347-14.821-1.347-20.211v-110.484c0-12.126 1.347-20.211 4.042-22.905 2.695-4.042 6.737-6.737 14.821-6.737 9.432-1.347 20.211-1.347 28.295-1.347 9.432 0 17.516 0 26.947 1.347 12.126 1.347 18.863 5.389 22.905 12.126 5.389 9.432 9.432 22.905 9.432 39.074zM2937.263 293.053l9.432 10.779c20.211-17.516 39.074-37.726 55.242-56.589l-10.779-10.779c-13.474 20.211-30.989 39.074-53.895 56.589zM3041.011 202.779l13.474 10.779c20.211-24.253 39.074-49.853 56.589-76.8l-13.474-10.779c-16.168 32.337-35.032 57.937-56.589 76.8zM3135.326 146.189c63.326 20.211 111.832 59.284 145.516 121.263l16.168-8.084c-2.695-2.695-5.389-4.042-6.737-5.389 36.379-53.895 83.537-87.579 141.474-101.053l-10.779-16.168c-61.979 25.6-107.789 61.979-137.432 106.442-32.337-45.811-78.147-82.189-134.737-110.484l-13.474 13.474zM3156.884 240.505c26.947 10.779 52.547 33.684 76.8 70.063l16.168-10.779c-6.737-1.347-13.474-6.737-20.211-16.168-13.474-17.516-32.337-36.379-60.632-55.242l-12.126 12.126zM3201.347 148.884c8.084-1.347 13.474-1.347 18.863-1.347h130.695c4.042 0 9.432 0 17.516 1.347-1.347-8.084-1.347-13.474-1.347-18.863v-79.495c0-4.042 0-10.779 1.347-20.211h-14.821c1.347 9.432 1.347 16.168 1.347 20.211v6.737h-140.126v-9.432c0-4.042 0-10.779 1.347-18.863h-16.168c1.347 9.432 1.347 14.821 1.347 18.863v82.189c1.347 4.042 1.347 9.432 0 18.863zM3214.821 136.758v-68.716h140.126v68.716h-140.126zM3318.568 298.442l9.432 10.779c24.253-17.516 49.853-36.379 78.147-57.937l-9.432-12.126c-24.253 22.905-49.853 43.116-78.147 59.284z" />
</font>
</defs>
</svg>
